<?xml version="1.0" standalone="no"?>
<!DOCTYPE svg PUBLIC "-//W3C//DTD SVG 20010904//EN"
 "http://www.w3.org/TR/2001/REC-SVG-20010904/DTD/svg10.dtd">
<svg version="1.0" xmlns="http://www.w3.org/2000/svg"
 width="362.000000pt" height="150.000000pt" viewBox="0 0 200.000000 200.000000"
 preserveAspectRatio="xMidYMid meet">

<g transform="translate(0.000000,200.000000) scale(0.100000,-0.100000)"
fill="#ffffff" stroke="none">
<path d="M980 1782 c0 -12 -101 -68 -155 -86 -27 -9 -72 -17 -100 -19 l-50 -3
0 -255 c1 -252 1 -254 26 -309 28 -59 97 -135 145 -160 16 -8 31 -18 34 -21 9
-11 95 -35 120 -34 75 4 172 54 233 120 16 16 43 57 60 90 l32 60 0 255 0 254
-45 4 c-69 5 -148 31 -221 74 -67 39 -79 44 -79 30z m35 -62 c4 -6 11 -8 16
-5 5 4 9 2 9 -3 0 -20 135 -76 205 -85 l30 -4 2 -215 2 -215 -28 -59 c-33 -69
-99 -137 -162 -166 -90 -43 -114 -41 -207 16 -68 41 -79 53 -120 123 -42 71
-48 118 -42 332 l5 184 29 4 c40 6 183 61 200 78 7 8 16 11 20 8 3 -4 6 -1 6
5 0 15 26 16 35 2z"/>
<path d="M952 1628 c-18 -11 -65 -31 -105 -43 l-72 -23 0 -184 c0 -169 2 -186
22 -223 30 -56 76 -100 136 -130 l52 -26 3 166 c1 92 1 238 0 325 l-3 159 -33
-21z m-34 -240 c14 -14 16 -54 2 -63 -5 -3 -7 -25 -3 -51 l6 -45 -34 3 c-32 3
-34 5 -31 38 1 19 -2 46 -9 61 -20 50 32 94 69 57z"/>
<path d="M1120 1450 c0 -5 -14 -10 -31 -10 -37 0 -29 -19 9 -21 24 -2 24 -2 5
-6 -28 -5 -30 -33 -3 -33 17 0 20 -7 20 -45 0 -34 -6 -50 -25 -69 -30 -30 -31
-36 -4 -70 24 -31 52 -33 79 -6 27 27 25 53 -5 86 -24 26 -25 31 -19 106 6 68
5 78 -10 78 -9 0 -16 -4 -16 -10z m34 -196 c9 -8 16 -19 16 -24 0 -16 -33 -41
-47 -36 -8 3 -17 6 -19 6 -9 0 -3 47 8 58 16 16 23 15 42 -4z"/>
<path d="M1689 753 c-4 -51 1 -256 6 -261 4 -4 13 1 20 11 9 13 13 51 11 135
-2 101 -4 117 -19 120 -9 2 -17 0 -18 -5z"/>
<path d="M1778 750 c-1 -5 -1 -65 2 -132 4 -100 8 -123 20 -123 12 0 15 23 18
133 2 125 2 132 -17 132 -11 0 -21 -4 -23 -10z"/>
<path d="M172 678 c-19 -19 -14 -73 9 -94 12 -10 23 -18 25 -16 2 1 15 2 28 2
30 0 43 -30 21 -46 -17 -13 -55 -8 -55 7 0 5 -9 9 -20 9 -23 0 -23 -19 0 -36
18 -14 87 -9 106 7 18 15 16 82 -3 75 -6 -3 -10 1 -7 7 3 9 -7 13 -32 14 -44
1 -55 11 -47 41 5 19 10 22 32 17 14 -4 29 -11 32 -17 4 -6 15 -8 24 -4 17 6
17 8 0 26 -21 23 -93 28 -113 8z"/>
<path d="M357 675 c-18 -18 -18 -148 1 -167 14 -14 81 -18 105 -6 21 11 23 48
2 48 -8 0 -19 -9 -25 -19 -17 -32 -50 -15 -50 26 0 22 4 32 11 28 6 -4 26 -4
45 -1 33 7 34 9 34 51 0 48 -5 51 -72 54 -20 1 -42 -5 -51 -14z m78 -39 c0
-23 -5 -30 -22 -31 -16 -1 -22 5 -25 26 -5 29 5 39 32 36 9 -2 15 -13 15 -31z"/>
<path d="M541 676 c-15 -17 -10 -151 5 -166 6 -6 33 -10 60 -8 45 3 49 5 52
31 3 22 -1 27 -18 27 -15 0 -20 -5 -17 -14 8 -19 -16 -38 -37 -30 -13 5 -16
21 -16 74 0 38 4 72 10 75 13 8 52 -14 45 -26 -4 -5 1 -12 10 -16 31 -11 40
39 11 59 -19 13 -93 9 -105 -6z"/>
<path d="M719 673 c-1 -10 -1 -49 0 -88 2 -76 17 -101 55 -88 12 3 33 6 47 5
26 -2 26 -1 32 85 6 91 0 110 -28 99 -13 -5 -16 -19 -14 -79 2 -81 -2 -96 -29
-93 -14 2 -18 17 -22 87 -4 69 -8 84 -22 87 -12 2 -18 -3 -19 -15z"/>
<path d="M907 683 c-2 -5 -3 -17 -1 -28 2 -11 4 -45 5 -75 2 -77 7 -94 25 -79
9 8 14 33 14 76 0 56 3 66 20 70 11 3 20 14 20 24 0 21 -11 24 -27 8 -8 -8
-13 -8 -17 0 -8 13 -33 15 -39 4z"/>
<path d="M1041 673 c-12 -23 -7 -151 7 -165 18 -18 95 -11 110 9 11 15 11 18
-3 21 -9 2 -24 -3 -34 -12 -32 -29 -50 -16 -47 34 1 26 0 25 79 29 16 1 18 7
14 42 -6 49 -18 59 -74 59 -30 0 -45 -5 -52 -17z m87 -30 c3 -23 -22 -48 -42
-40 -19 8 -17 55 3 60 26 7 36 2 39 -20z"/>
<path d="M1208 685 c-5 -6 26 -157 36 -174 11 -17 53 -13 60 5 3 9 6 28 6 42
0 61 36 62 41 2 4 -43 15 -60 41 -60 23 0 36 29 17 41 -12 7 -11 9 2 9 9 0 16
6 17 13 0 6 8 38 16 70 14 58 14 58 -7 55 -19 -3 -22 -10 -24 -53 -3 -52 -20
-105 -34 -105 -4 0 -6 9 -4 20 2 11 0 20 -5 20 -4 0 -8 10 -9 23 0 12 -3 39
-7 60 -5 32 -10 38 -28 35 -20 -3 -29 -32 -45 -140 -1 -5 -5 -8 -10 -8 -9 0
-16 22 -26 94 -7 51 -19 68 -37 51z"/>
<path d="M1510 680 c-10 -6 -14 -31 -14 -86 0 -64 3 -79 20 -91 10 -8 28 -11
39 -8 11 4 32 6 48 6 l27 -1 -1 94 -1 93 -52 1 c-29 0 -59 -4 -66 -8z m78 -82
c2 -49 -1 -68 -13 -78 -27 -23 -45 5 -45 71 0 45 4 60 18 68 30 18 37 7 40
-61z"/>
</g>
<text x="-40" y="180" font-family ="'Roboto', sans-serif" font-size="24" font-weight="600" fill="#fff">A wall of strong security</text>
</svg>

